<?xml version="1.0" encoding="UTF-8"?>
<svg width="70pt" height="70pt" version="1.1" viewBox="0 0 700 700" xmlns="http://www.w3.org/2000/svg" xmlns:xlink="http://www.w3.org/1999/xlink">
 <g>
  <path d="m350 50.402c-126.61 0-229.6 103-229.6 229.6 0 126.61 103 229.6 229.6 229.6s229.6-103 229.6-229.6c0-126.61-103-229.6-229.6-229.6zm0 33.602c108.45 0 196 87.555 196 196 0 108.45-87.555 196-196 196s-196-87.555-196-196c0-108.45 87.555-196 196-196zm-134.4 89.602c-9.2773 0-16.801 7.5195-16.801 16.801 0 9.2773 7.5234 16.801 16.801 16.801h268.8c9.2773 0 16.801-7.5234 16.801-16.801s-7.5234-16.801-16.801-16.801zm0 89.602c-9.2773 0-16.801 7.5195-16.801 16.801 0 9.2773 7.5234 16.801 16.801 16.801h268.8c9.2773 0 16.801-7.5234 16.801-16.801 0-9.2773-7.5234-16.801-16.801-16.801zm0 89.602c-9.2773 0-16.801 7.5195-16.801 16.801 0 9.2773 7.5234 16.801 16.801 16.801h268.8c9.2773 0 16.801-7.5234 16.801-16.801s-7.5234-16.801-16.801-16.801z"/>
  <use x="70" y="644" xlink:href="#t"/>
  <use x="90.550781" y="644" xlink:href="#d"/>
  <use x="104.359375" y="644" xlink:href="#a"/>
  <use x="123.347656" y="644" xlink:href="#m"/>
  <use x="142.242188" y="644" xlink:href="#c"/>
  <use x="155.628906" y="644" xlink:href="#a"/>
  <use x="174.617188" y="644" xlink:href="#l"/>
  <use x="204.410156" y="644" xlink:href="#k"/>
  <use x="224.453125" y="644" xlink:href="#j"/>
  <use x="252.453125" y="644" xlink:href="#f"/>
  <use x="272.382812" y="644" xlink:href="#e"/>
  <use x="292.320312" y="644" xlink:href="#s"/>
  <use x="301.914062" y="644" xlink:href="#i"/>
  <use x="311.515625" y="644" xlink:href="#h"/>
  <use x="340.6875" y="644" xlink:href="#i"/>
  <use x="350.289062" y="644" xlink:href="#g"/>
  <use x="366.882812" y="644" xlink:href="#b"/>
  <use x="386.121094" y="644" xlink:href="#e"/>
  <use x="70" y="672" xlink:href="#r"/>
  <use x="82.183594" y="672" xlink:href="#d"/>
  <use x="95.992188" y="672" xlink:href="#b"/>
  <use x="115.226562" y="672" xlink:href="#h"/>
  <use x="154.152344" y="672" xlink:href="#c"/>
  <use x="167.535156" y="672" xlink:href="#q"/>
  <use x="187.46875" y="672" xlink:href="#a"/>
  <use x="216.207031" y="672" xlink:href="#p"/>
  <use x="239.640625" y="672" xlink:href="#b"/>
  <use x="258.878906" y="672" xlink:href="#f"/>
  <use x="278.8125" y="672" xlink:href="#e"/>
  <use x="308.492188" y="672" xlink:href="#o"/>
  <use x="329.015625" y="672" xlink:href="#d"/>
  <use x="342.820312" y="672" xlink:href="#b"/>
  <use x="362.058594" y="672" xlink:href="#n"/>
  <use x="371.65625" y="672" xlink:href="#a"/>
  <use x="390.648438" y="672" xlink:href="#g"/>
  <use x="407.242188" y="672" xlink:href="#c"/>
 </g>
</svg>
